<svg xmlns="http://www.w3.org/2000/svg" width="2600" height="1800" viewBox="0 0 2600 1800"><rect width="100%" height="100%" fill="#111827"/><path d="M 884 1320 L 884 1338 L 884 1332 L 882 1332 L 882 1326 L 882 1344" fill="none" stroke="#6ea8fe" stroke-width="3" /><path d="M 882 1144 L 882 1162 L 882 1148 L 884 1148 L 884 1134 L 884 1152" fill="none" stroke="#6ea8fe" stroke-width="3" /><path d="M 762 1173 L 780 1173 L 789 1173 L 789 1088 L 798 1088 L 816 1088" fill="none" stroke="#6ea8fe" stroke-width="3" /><path d="M 564 1184 L 582 1184 L 594 1184 L 594 1173 L 606 1173 L 624 1173" fill="none" stroke="#6ea8fe" stroke-width="3" /><path d="M 693 1104 L 693 1086 L 693 1092 L 692 1092 L 692 1098 L 692 1080" fill="none" stroke="#6ea8fe" stroke-width="3" /><path d="M 456 837 L 438 837 L 435 837 L 435 824 L 432 824 L 414 824" fill="none" stroke="#6ea8fe" stroke-width="3" /><path d="M 687 876 L 687 876 L 606 876 L 606 902 L 525 902 L 525 902" fill="none" stroke="#6ea8fe" stroke-width="3" /><path d="M 687 876 L 687 876 L 690 876 L 690 894 L 692 894 L 692 912" fill="none" stroke="#6ea8fe" stroke-width="3" /><path d="M 525 906 L 525 924 L 525 921 L 524 921 L 524 918 L 524 936" fill="none" stroke="#6ea8fe" stroke-width="3" /><path d="M 524 1104 L 524 1122 L 524 1116 L 498 1116 L 498 1110 L 498 1128" fill="none" stroke="#6ea8fe" stroke-width="3" /><path d="M 882 1456 L 882 1474 L 882 1460 L 884 1460 L 884 1446 L 884 1464" fill="none" stroke="#6ea8fe" stroke-width="3" /><path d="M 884 1632 L 884 1650 L 884 1632 L 882 1632 L 882 1614 L 882 1632" fill="none" stroke="#6ea8fe" stroke-width="3" /><path d="M 420 656 L 438 656 L 438 656 L 438 668 L 438 668 L 456 668" fill="none" stroke="#6ea8fe" stroke-width="3" /><path d="M 624 668 L 642 668 L 708 668 L 708 656 L 774 656 L 792 656" fill="none" stroke="#6ea8fe" stroke-width="3" /><rect x="816" y="1344" width="132" height="112" rx="8" fill="#172033" stroke="#6ea8fe"/><text x="882" y="1362" text-anchor="middle" font-family="sans-serif" font-size="12" fill="white">Pallet Town</text><circle cx="882" cy="1344" r="7" fill="#0d1524" stroke="white"/><text x="882" y="1347" text-anchor="middle" font-family="sans-serif" font-size="7" fill="white">N</text><circle cx="882" cy="1456" r="7" fill="#0d1524" stroke="white"/><text x="882" y="1459" text-anchor="middle" font-family="sans-serif" font-size="7" fill="white">S</text><rect x="816" y="1032" width="132" height="112" rx="8" fill="#172033" stroke="#6ea8fe"/><text x="882" y="1050" text-anchor="middle" font-family="sans-serif" font-size="12" fill="white">Oldale Town</text><circle cx="882" cy="1032" r="7" fill="#0d1524" stroke="white"/><text x="882" y="1035" text-anchor="middle" font-family="sans-serif" font-size="7" fill="white">N</text><circle cx="882" cy="1144" r="7" fill="#0d1524" stroke="white"/><text x="882" y="1147" text-anchor="middle" font-family="sans-serif" font-size="7" fill="white">S</text><circle cx="816" cy="1088" r="7" fill="#0d1524" stroke="white"/><text x="816" y="1091" text-anchor="middle" font-family="sans-serif" font-size="7" fill="white">W</text><rect x="432" y="1128" width="132" height="112" rx="8" fill="#172033" stroke="#6ea8fe"/><text x="498" y="1146" text-anchor="middle" font-family="sans-serif" font-size="12" fill="white">Cherrygrove City</text><circle cx="498" cy="1128" r="7" fill="#0d1524" stroke="white"/><text x="498" y="1131" text-anchor="middle" font-family="sans-serif" font-size="7" fill="white">N</text><circle cx="564" cy="1184" r="7" fill="#0d1524" stroke="white"/><text x="564" y="1187" text-anchor="middle" font-family="sans-serif" font-size="7" fill="white">E</text><circle cx="432" cy="1184" r="7" fill="#0d1524" stroke="white"/><text x="432" y="1187" text-anchor="middle" font-family="sans-serif" font-size="7" fill="white">W</text><rect x="840" y="1152" width="88" height="168" rx="8" fill="#172033" stroke="#6ea8fe"/><text x="884" y="1170" text-anchor="middle" font-family="sans-serif" font-size="12" fill="white">Route 101</text><circle cx="884" cy="1152" r="7" fill="#0d1524" stroke="white"/><text x="884" y="1155" text-anchor="middle" font-family="sans-serif" font-size="7" fill="white">N</text><circle cx="884" cy="1320" r="7" fill="#0d1524" stroke="white"/><text x="884" y="1323" text-anchor="middle" font-family="sans-serif" font-size="7" fill="white">S</text><rect x="624" y="1104" width="138" height="138" rx="8" fill="#172033" stroke="#6ea8fe"/><text x="693" y="1122" text-anchor="middle" font-family="sans-serif" font-size="12" fill="white">Route 29</text><circle cx="693" cy="1104" r="7" fill="#0d1524" stroke="white"/><text x="693" y="1107" text-anchor="middle" font-family="sans-serif" font-size="7" fill="white">N</text><circle cx="762" cy="1173" r="7" fill="#0d1524" stroke="white"/><text x="762" y="1176" text-anchor="middle" font-family="sans-serif" font-size="7" fill="white">E</text><circle cx="624" cy="1173" r="7" fill="#0d1524" stroke="white"/><text x="624" y="1176" text-anchor="middle" font-family="sans-serif" font-size="7" fill="white">W</text><rect x="648" y="912" width="88" height="168" rx="8" fill="#172033" stroke="#6ea8fe"/><text x="692" y="930" text-anchor="middle" font-family="sans-serif" font-size="12" fill="white">Route 46</text><circle cx="692" cy="912" r="7" fill="#0d1524" stroke="white"/><text x="692" y="915" text-anchor="middle" font-family="sans-serif" font-size="7" fill="white">N</text><circle cx="692" cy="1080" r="7" fill="#0d1524" stroke="white"/><text x="692" y="1083" text-anchor="middle" font-family="sans-serif" font-size="7" fill="white">S</text><rect x="288" y="768" width="126" height="112" rx="8" fill="#172033" stroke="#6ea8fe"/><text x="351" y="786" text-anchor="middle" font-family="sans-serif" font-size="12" fill="white">Ilex Forest</text><circle cx="351" cy="768" r="7" fill="#0d1524" stroke="white"/><text x="351" y="771" text-anchor="middle" font-family="sans-serif" font-size="7" fill="white">N</text><circle cx="414" cy="824" r="7" fill="#0d1524" stroke="white"/><text x="414" y="827" text-anchor="middle" font-family="sans-serif" font-size="7" fill="white">E</text><rect x="456" y="768" width="138" height="138" rx="8" fill="#172033" stroke="#6ea8fe"/><text x="525" y="786" text-anchor="middle" font-family="sans-serif" font-size="12" fill="white">Route 31</text><circle cx="525" cy="906" r="7" fill="#0d1524" stroke="white"/><text x="525" y="909" text-anchor="middle" font-family="sans-serif" font-size="7" fill="white">S</text><circle cx="456" cy="837" r="7" fill="#0d1524" stroke="white"/><text x="456" y="840" text-anchor="middle" font-family="sans-serif" font-size="7" fill="white">W</text><rect x="624" y="768" width="126" height="112" rx="8" fill="#172033" stroke="#6ea8fe"/><text x="687" y="786" text-anchor="middle" font-family="sans-serif" font-size="12" fill="white">Dark Cave</text><rect x="288" y="600" width="132" height="112" rx="8" fill="#172033" stroke="#6ea8fe"/><text x="354" y="618" text-anchor="middle" font-family="sans-serif" font-size="12" fill="white">Rustboro City</text><circle cx="354" cy="600" r="7" fill="#0d1524" stroke="white"/><text x="354" y="603" text-anchor="middle" font-family="sans-serif" font-size="7" fill="white">N</text><circle cx="420" cy="656" r="7" fill="#0d1524" stroke="white"/><text x="420" y="659" text-anchor="middle" font-family="sans-serif" font-size="7" fill="white">E</text><circle cx="354" cy="712" r="7" fill="#0d1524" stroke="white"/><text x="354" y="715" text-anchor="middle" font-family="sans-serif" font-size="7" fill="white">S</text><rect x="480" y="936" width="88" height="168" rx="8" fill="#172033" stroke="#6ea8fe"/><text x="524" y="954" text-anchor="middle" font-family="sans-serif" font-size="12" fill="white">Route 1</text><circle cx="524" cy="936" r="7" fill="#0d1524" stroke="white"/><text x="524" y="939" text-anchor="middle" font-family="sans-serif" font-size="7" fill="white">N</text><circle cx="524" cy="1104" r="7" fill="#0d1524" stroke="white"/><text x="524" y="1107" text-anchor="middle" font-family="sans-serif" font-size="7" fill="white">S</text><rect x="816" y="1632" width="132" height="112" rx="8" fill="#172033" stroke="#6ea8fe"/><text x="882" y="1650" text-anchor="middle" font-family="sans-serif" font-size="12" fill="white">Cinnabar Island</text><circle cx="882" cy="1632" r="7" fill="#0d1524" stroke="white"/><text x="882" y="1635" text-anchor="middle" font-family="sans-serif" font-size="7" fill="white">N</text><circle cx="948" cy="1688" r="7" fill="#0d1524" stroke="white"/><text x="948" y="1691" text-anchor="middle" font-family="sans-serif" font-size="7" fill="white">E</text><rect x="840" y="1464" width="88" height="168" rx="8" fill="#172033" stroke="#6ea8fe"/><text x="884" y="1482" text-anchor="middle" font-family="sans-serif" font-size="12" fill="white">Route 21</text><circle cx="884" cy="1464" r="7" fill="#0d1524" stroke="white"/><text x="884" y="1467" text-anchor="middle" font-family="sans-serif" font-size="7" fill="white">N</text><circle cx="884" cy="1632" r="7" fill="#0d1524" stroke="white"/><text x="884" y="1635" text-anchor="middle" font-family="sans-serif" font-size="7" fill="white">S</text><rect x="792" y="600" width="126" height="112" rx="8" fill="#172033" stroke="#6ea8fe"/><text x="855" y="618" text-anchor="middle" font-family="sans-serif" font-size="12" fill="white">Mt. Moon</text><circle cx="792" cy="656" r="7" fill="#0d1524" stroke="white"/><text x="792" y="659" text-anchor="middle" font-family="sans-serif" font-size="7" fill="white">W</text><circle cx="918" cy="656" r="7" fill="#0d1524" stroke="white"/><text x="918" y="659" text-anchor="middle" font-family="sans-serif" font-size="7" fill="white">E</text><rect x="456" y="624" width="168" height="88" rx="8" fill="#172033" stroke="#6ea8fe"/><text x="540" y="642" text-anchor="middle" font-family="sans-serif" font-size="12" fill="white">Route 44</text><circle cx="624" cy="668" r="7" fill="#0d1524" stroke="white"/><text x="624" y="671" text-anchor="middle" font-family="sans-serif" font-size="7" fill="white">E</text><circle cx="456" cy="668" r="7" fill="#0d1524" stroke="white"/><text x="456" y="671" text-anchor="middle" font-family="sans-serif" font-size="7" fill="white">W</text></svg>